<?xml version="1.0" encoding="utf-8"?>
<!-- Generator: Adobe Illustrator 16.0.4, SVG Export Plug-In . SVG Version: 6.00 Build 0)  -->
<!DOCTYPE svg PUBLIC "-//W3C//DTD SVG 1.1//EN" "http://www.w3.org/Graphics/SVG/1.1/DTD/svg11.dtd">
<svg version="1.1" id="Layer_1" xmlns="http://www.w3.org/2000/svg" xmlns:xlink="http://www.w3.org/1999/xlink" x="0px" y="0px"
	 width="595.279px" height="841.891px" viewBox="0 0 595.279 841.891" enable-background="new 0 0 595.279 841.891"
	 xml:space="preserve">
<g>
	<path fill="#E3569F" d="M286.479,57.576L14.882,198.955c-11.161,6.201-11.161,23.563,0,29.764l271.597,141.379
		c7.44,3.721,16.122,3.721,23.562,0l271.597-141.379c11.162-6.201,11.162-23.563,0-29.764L308.801,57.576
		C301.361,53.855,293.919,53.855,286.479,57.576z"/>
	<path fill="#E3569F" d="M580.398,330.413l-50.847-26.044c-2.48-1.24-6.201-1.24-9.921,0L324.924,406.063
		c-8.682,4.961-18.603,6.201-27.284,6.201c-9.921,0-18.603-2.48-27.283-6.201L75.651,304.369c-2.48-1.24-6.201-1.24-9.922,0
		l-50.847,26.044c-11.161,6.201-11.161,23.563,0,29.764l271.597,141.379c7.44,3.721,16.122,3.721,23.562,0l271.597-141.379
		C591.56,353.976,591.56,336.614,580.398,330.413z"/>
	<path fill="#E3569F" d="M580.398,464.351l-50.847-26.043c-2.48-1.24-6.201-1.24-9.921,0L324.924,540.001
		c-8.682,4.961-18.603,6.201-27.284,6.201c-9.921,0-18.603-2.48-27.283-6.201L75.651,438.308c-2.48-1.24-6.201-1.24-9.922,0
		l-50.847,26.043c-11.161,6.201-11.161,23.563,0,29.765l271.597,141.379c7.44,3.721,16.122,3.721,23.562,0l271.597-141.379
		C591.56,487.914,591.56,470.552,580.398,464.351z"/>
</g>
</svg>
