<?xml version="1.0" encoding="utf-8"?>
<!-- Generator: Adobe Illustrator 16.0.4, SVG Export Plug-In . SVG Version: 6.00 Build 0)  -->
<!DOCTYPE svg PUBLIC "-//W3C//DTD SVG 1.1//EN" "http://www.w3.org/Graphics/SVG/1.1/DTD/svg11.dtd">
<svg version="1.1" id="Layer_1" xmlns="http://www.w3.org/2000/svg" xmlns:xlink="http://www.w3.org/1999/xlink" x="0px" y="0px"
	 width="595.279px" height="841.891px" viewBox="0 0 595.279 841.891" enable-background="new 0 0 595.279 841.891"
	 xml:space="preserve">
<path fill="#61BC47" d="M588.155,110.237c0-34.413-133.324-62.403-297.615-62.403c-164.321,0-297.664,27.99-297.664,62.403
	c0,3.227,1.529,6.364,3.798,9.477l-0.31-0.06l246.97,331.803l15.728,184.758l31.479,6.917l31.483-8.602L336,449.772l248.666-330.118
	l-0.291,0.06C586.619,116.601,588.155,113.463,588.155,110.237z M290.539,70.097c138.068,0,249.773,17.584,249.773,39.324
	c0,21.71-111.705,39.3-249.773,39.3c-138.094,0-249.774-17.584-249.774-39.3C40.765,87.682,152.446,70.097,290.539,70.097z"/>
</svg>
