<?xml version="1.0" encoding="utf-8"?>
<!-- Generator: Adobe Illustrator 16.0.4, SVG Export Plug-In . SVG Version: 6.00 Build 0)  -->
<!DOCTYPE svg PUBLIC "-//W3C//DTD SVG 1.1//EN" "http://www.w3.org/Graphics/SVG/1.1/DTD/svg11.dtd">
<svg version="1.1" id="Layer_1" xmlns="http://www.w3.org/2000/svg" xmlns:xlink="http://www.w3.org/1999/xlink" x="0px" y="0px"
	 width="595.279px" height="841.891px" viewBox="0 0 595.279 841.891" enable-background="new 0 0 595.279 841.891"
	 xml:space="preserve">
<path fill="#049EDC" d="M448.889,494.539L311.212,270.083c-1.22-1.988-3.333-3.25-5.655-3.375c-2.208-0.065-4.56,0.887-5.994,2.72
	l-29.704,38.08l-40.753-27.168c-3.209-2.125-7.542-1.321-9.757,1.845l-26.383,37.753l-32.64-20.4
	c-1.613-1.012-3.541-1.339-5.387-0.887c-1.84,0.428-3.429,1.583-4.423,3.196L32.323,494.539c-1.345,2.186-1.393,4.936-0.137,7.174
	c1.256,2.244,3.619,3.631,6.191,3.631h404.463c2.571,0,4.935-1.387,6.19-3.631C450.287,499.475,450.234,496.725,448.889,494.539z"/>
<g>
	<path fill="#049EDC" d="M194.924,336.624c-1.285,0-2.589-0.351-3.756-1.083l-38.359-23.972c-3.305-2.065-4.322-6.405-2.292-9.727
		l84.035-137.021c1.292-2.107,3.584-3.387,6.055-3.387l0,0c2.47,0,4.762,1.286,6.054,3.387l64.552,105.263
		c1.548,2.524,1.363,5.739-0.452,8.072l-33.758,43.283c-2.292,2.923-6.447,3.602-9.537,1.542l-40.455-26.978l-26.264,37.586
		C199.371,335.558,197.169,336.624,194.924,336.624z M166.297,303.258l26.675,16.674l26.383-37.753
		c2.215-3.161,6.548-3.97,9.757-1.845l40.753,27.168l26.681-34.199l-55.933-91.203L166.297,303.258z"/>
</g>
<path fill="#049EDC" d="M562.956,493.802L456.74,320.641c-1.119-1.828-3-3.048-5.125-3.328c-2.119-0.286-4.257,0.411-5.811,1.881
	l-16.055,15.221l-33.854-17.603c-2.75-1.429-6.119-0.917-8.31,1.298l-19.383,19.549l-25.531-14.602
	c-2.798-1.595-6.352-1.113-8.614,1.22c-2.262,2.328-2.648,5.888-0.958,8.649l103.222,168.286c1.292,2.107,3.583,3.387,6.054,3.387
	h114.532c2.571,0,4.935-1.387,6.19-3.631C564.356,498.736,564.302,495.986,562.956,493.802z"/>
<g>
	<path fill="#049EDC" d="M339.16,336.32c-1.827,0-3.619-0.702-4.958-2.018c-0.007,0-0.007,0-0.007,0l-0.006-0.006
		c-0.006-0.006-0.006-0.006-0.012-0.012l0,0c-0.369-0.369-0.708-0.78-1-1.232c0,0,0-0.012-0.012-0.023
		c-0.006-0.006-0.012-0.012-0.012-0.018l0,0c-0.012-0.024-0.03-0.042-0.042-0.06c0-0.006-0.006-0.012-0.006-0.018l-2.036-3.316
		c-2.054-3.346-1.006-7.715,2.334-9.763c3.333-2.065,7.715-1.012,9.763,2.333l2.035,3.316c2.054,3.345,1.007,7.715-2.333,9.763
		C341.708,335.987,340.423,336.32,339.16,336.32z"/>
</g>
<g>
	<path fill="#049EDC" d="M369.412,353.625c-1.208,0-2.422-0.31-3.523-0.935l-30.258-17.305c-1.036-0.595-1.899-1.435-2.524-2.446
		l-2.036-3.316c-1.398-2.28-1.398-5.143-0.006-7.423l57.267-93.37c1.291-2.107,3.583-3.387,6.054-3.387l0,0
		c2.471,0,4.762,1.286,6.054,3.387l56.308,91.81c1.75,2.857,1.268,6.554-1.167,8.858l-19.722,18.704
		c-2.196,2.083-5.477,2.548-8.155,1.143l-33.704-17.525l-19.537,19.709C373.086,352.904,371.252,353.625,369.412,353.625z
		 M346.018,324.974l22.187,12.691l19.383-19.549c2.19-2.214,5.565-2.726,8.31-1.298l33.854,17.603l11.882-11.263l-47.247-77.041
		L346.018,324.974z"/>
</g>
</svg>
