<?xml version="1.0" encoding="UTF-8" standalone="no"?>
<!DOCTYPE svg PUBLIC "-//W3C//DTD SVG 1.1//EN" "http://www.w3.org/Graphics/SVG/1.1/DTD/svg11.dtd">
<svg xmlns="http://www.w3.org/2000/svg" xmlns:xl="http://www.w3.org/1999/xlink" version="1.1" xmlns:dc="http://purl.org/dc/elements/1.1/" viewBox="161 177 54 61" width="54" height="61">
  <defs/>
  <metadata> Produced by OmniGraffle 7.18.5\n2021-08-29 19:07:07 +0000</metadata>
  <g id="Canvas_1" fill-opacity="1" fill="none" stroke="none" stroke-opacity="1" stroke-dasharray="none">
    <title>Canvas 1</title>
    <g id="Canvas_1_Layer_1">
      <title>Layer 1</title>
      <g id="Group_6">
        <g id="Graphic_5">
          <ellipse cx="188.1" cy="192.00001" rx="25.9000543356798" ry="14.0000293706377" fill="#019edc"/>
        </g>
        <g id="Graphic_4">
          <path d="M 188.1 216.40001 C 202.4 216.40001 214 210.10001 214 202.40001 C 214 201.40001 213.8 200.40001 213.4 199.40001 C 210.9 205.70001 200.5 210.40001 188.1 210.40001 C 175.7 210.40001 165.3 205.70001 162.8 199.40001 C 162.4 200.40001 162.2 201.40001 162.2 202.40001 C 162.2 210.10001 173.8 216.40001 188.1 216.40001 Z" fill="#019edc"/>
        </g>
        <g id="Graphic_3">
          <path d="M 187.9 220.90001 C 175.5 220.90001 165.1 216.20001 162.6 209.90001 C 162.2 210.90001 162 211.90001 162 212.90001 C 162 220.60001 173.6 226.90001 187.9 226.90001 C 202.2 226.90001 213.8 220.60001 213.8 212.90001 C 213.8 211.90001 213.6 210.90001 213.2 209.90001 C 210.7 216.20001 200.3 220.90001 187.9 220.90001 Z" fill="#019edc"/>
        </g>
        <g id="Graphic_2">
          <path d="M 187.9 231.40001 C 175.5 231.40001 165.1 226.70001 162.6 220.40001 C 162.2 221.40001 162 222.40001 162 223.40001 C 162 231.10001 173.6 237.4 187.9 237.4 C 202.2 237.4 213.8 231.10001 213.8 223.40001 C 213.8 222.40001 213.6 221.40001 213.2 220.40001 C 210.7 226.70001 200.3 231.40001 187.9 231.40001 Z" fill="#019edc"/>
        </g>
      </g>
    </g>
  </g>
</svg>
