<?xml version="1.0" encoding="utf-8"?>
<!-- Generator: Adobe Illustrator 16.0.4, SVG Export Plug-In . SVG Version: 6.00 Build 0)  -->
<!DOCTYPE svg PUBLIC "-//W3C//DTD SVG 1.1//EN" "http://www.w3.org/Graphics/SVG/1.1/DTD/svg11.dtd">
<svg version="1.1" id="Layer_1" xmlns="http://www.w3.org/2000/svg" xmlns:xlink="http://www.w3.org/1999/xlink" x="0px" y="0px"
	 width="595.279px" height="841.891px" viewBox="0 0 595.279 841.891" enable-background="new 0 0 595.279 841.891"
	 xml:space="preserve">
<g>
	<path fill="#FDEE27" d="M440.88,174.927l51.622,26.043c6.046-2.79,12.557-5.116,17.673-9.766
		c5.114-5.116,7.904-12.092,10.695-18.603c6.977-17.207,14.417-35.345,12.558-53.947c-0.466-6.511-2.325-13.021-4.187-19.067
		c-2.791-8.836-6.046-17.208-9.302-26.044c-2.325-5.581-4.65-12.091-7.906-17.672c-2.325-3.721-8.371-1.86-8.371,2.79
		c0.932,13.487-2.324,26.974-9.301,38.6c-8.836,15.347-22.788,26.974-38.601,34.415c-5.58,2.791-11.161,5.581-16.277,10.231
		C424.137,155.859,436.229,173.532,440.88,174.927z"/>
	<path fill="#FDEE27" d="M297.64,308.865c-68.829-104.174,74.41-255.32,0-255.32c-161.843,0-292.989,131.148-292.989,292.99
		c0,161.842,131.146,292.989,292.989,292.989c161.842,0,292.989-131.147,292.989-292.989
		C590.63,259.104,413.441,485.124,297.64,308.865z M49.762,320.026c0-26.043,21.393-47.437,47.437-47.437
		c26.043,0,47.437,21.393,47.437,47.437s-21.394,47.437-47.437,47.437C71.155,367.463,49.762,346.535,49.762,320.026z
		 M138.589,515.818c-26.044,0-47.437-21.395-47.437-47.438c0-26.044,21.393-47.437,47.437-47.437
		c26.509,0,47.437,20.928,47.437,47.437S165.097,515.818,138.589,515.818z M175.328,234.455c-26.043,0-47.437-21.393-47.437-47.437
		s21.394-47.437,47.437-47.437c26.044,0,47.438,21.393,47.438,47.437C222.765,213.527,201.837,234.455,175.328,234.455z
		 M275.782,597.204c-26.044,0-47.437-21.395-47.437-47.438c0-26.044,21.393-47.437,47.437-47.437
		c26.043,0,47.437,21.393,47.437,47.437S301.825,597.204,275.782,597.204z M427.858,549.303c-26.044,0-47.437-21.394-47.437-47.437
		c0-26.044,21.393-47.438,47.437-47.438c26.043,0,47.438,21.394,47.438,47.438C475.295,527.909,453.901,549.303,427.858,549.303z"/>
	<path fill="#FDEE27" d="M414.37,354.441l68.364-132.078l-51.622-25.579c-0.465,0-0.465-0.465-0.93-0.465l-60.458,148.82
		c13.021,6.046,26.509,9.301,41.391,9.301C412.51,354.441,413.441,354.441,414.37,354.441z"/>
</g>
</svg>
