<?xml version="1.0" encoding="utf-8"?>
<!-- Generator: Adobe Illustrator 16.0.4, SVG Export Plug-In . SVG Version: 6.00 Build 0)  -->
<!DOCTYPE svg PUBLIC "-//W3C//DTD SVG 1.1//EN" "http://www.w3.org/Graphics/SVG/1.1/DTD/svg11.dtd">
<svg version="1.1" id="Layer_1" xmlns="http://www.w3.org/2000/svg" xmlns:xlink="http://www.w3.org/1999/xlink" x="0px" y="0px"
	 width="495.186px" height="519.971px" viewBox="0 0 495.186 519.971" enable-background="new 0 0 495.186 519.971"
	 xml:space="preserve">
<title>tech</title>
<desc>Created with Sketch.</desc>
<g>
	<g>
		<path fill="#963D97" d="M94.095,97.729h312.349v320.573H94.095V97.729z M495.185,117.274V78.183h-57.107l-19.049-19.546V0h-38.097
			v58.637h-38.097V0h-38.099v58.637H266.64V0h-38.098v58.637h-38.097V0H152.35v58.637h-38.06V0H76.194v58.637L57.146,78.183H0
			v39.091h57.146v39.092H0v39.129h57.146v39.092H0v39.091h57.146v39.093H0v39.09h57.146v39.093H0v39.092h57.146l19.048,19.546
			v58.637h38.097v-46.895h38.06v58.638h38.097v-58.638h38.097v58.638h38.098v-58.638h38.097v58.638h38.099v-58.638h38.097v58.638
			h38.097v-58.638l19.049-19.546h57.107v-39.091h-57.107v-39.092h57.107v-39.131h-57.107v-39.091h57.107v-39.091h-57.107V207.2
			h57.107v-39.091h-57.107v-39.092h57.107L495.185,117.274L495.185,117.274z"/>
	</g>
</g>
</svg>
