<?xml version="1.0" encoding="utf-8"?>
<!-- Generator: Adobe Illustrator 16.0.4, SVG Export Plug-In . SVG Version: 6.00 Build 0)  -->
<!DOCTYPE svg PUBLIC "-//W3C//DTD SVG 1.1//EN" "http://www.w3.org/Graphics/SVG/1.1/DTD/svg11.dtd">
<svg version="1.1" id="Layer_1" xmlns="http://www.w3.org/2000/svg" xmlns:xlink="http://www.w3.org/1999/xlink" x="0px" y="0px"
	 width="648px" height="648px" viewBox="0 0 648 648" enable-background="new 0 0 648 648" xml:space="preserve">
<g>
	<path fill="#963D97" d="M346.476,0c-96.229,0-184.958,72.253-203.388,151.83c-4.093,17.684-8.727,63.897-8.727,63.897
		L79.895,323.558c-0.884,1.985-1.312,4.278-1.312,6.637c0,9.419,7.6,17.07,17.064,17.07h38.708v62.979
		c0,49.271,21.486,82.865,83.571,82.865h14.717v90.102h50.92v66.64h21.4v-66.64h37.25v66.64h21.399v-66.64h37.229v66.64h21.396
		v-66.64h55.178V390.65c49.344-38.791,81.085-110.926,81.085-178.558C558.513,94.94,463.633,0,346.476,0z M182.985,257.954
		c-11.415,0-20.674-9.259-20.674-20.675c0-11.416,9.261-20.668,20.674-20.668c11.423,0,20.676,9.253,20.676,20.668
		C203.662,248.695,194.415,257.954,182.985,257.954z M294.838,547.735c-8.14,0-14.742-6.609-14.742-14.741
		c0-8.146,6.603-14.748,14.742-14.748c8.146,0,14.749,6.602,14.749,14.748C309.587,541.126,302.983,547.735,294.838,547.735z
		 M353.646,547.735c-8.136,0-14.736-6.609-14.736-14.741c0-8.146,6.604-14.748,14.736-14.748c8.146,0,14.75,6.602,14.75,14.748
		C368.403,541.126,361.8,547.735,353.646,547.735z M412.443,547.735c-8.145,0-14.741-6.609-14.741-14.741
		c0-8.146,6.602-14.748,14.741-14.748c8.144,0,14.748,6.602,14.748,14.748C427.192,541.126,420.596,547.735,412.443,547.735z
		 M446.945,310.885c-8.229,28.695-32.237,47.954-57.1,47.954c-4.375,0-8.766-0.593-13.106-1.834
		c-4.119-1.178-6.492-5.47-5.318-9.588c1.174-4.114,5.458-6.513,9.584-5.326c20.786,5.979,43.722-9.952,51.038-35.477
		c3.359-11.718,5.872-28.328-1.237-40.938c-4.4-7.783-12.187-13.228-23.134-16.179c-8.989-2.413-18.734,0.771-26.098,8.554
		c-2.939,3.118-7.835,3.25-10.954,0.312c-3.112-2.938-3.251-7.843-0.312-10.961c11.335-12.007,26.848-16.827,41.396-12.878
		c15.113,4.073,26.073,11.988,32.591,23.522C452.02,271.729,452.936,290.005,446.945,310.885z"/>
</g>
</svg>
