<?xml version="1.0" encoding="UTF-8"?><svg id="Layer_1" xmlns="http://www.w3.org/2000/svg" viewBox="0 0 680.88 624.15"><defs><style>.cls-1{fill:#e73c16;}</style></defs><path class="cls-1" d="m663.73,432.18c35.31,61.21,14.33,139.4-46.77,174.72-61.21,35.31-139.51,14.43-174.81-46.77-43.5-81.26-159.87-80.96-203.48.31-10.85,18.74-26.61,34.9-46.77,46.57-61.21,35.31-139.4,14.33-174.72-46.88-35.31-61.1-14.43-139.4,46.77-174.72,21.9-12.7,45.96-18.11,69.5-17.09,89.87.92,145.04-97.64,97.64-174-.51-.72-.92-1.54-1.43-2.35-35.31-61.21-14.33-139.51,46.88-174.81,61.1-35.31,139.4-14.33,174.72,46.88,23.85,41.35,22.01,90.58-.61,128.97v.11c-47.49,76.25,7.37,176.04,97.24,175.12,45.84-1.75,91.28,21.27,115.85,63.96h0Zm-80.04,117.09c29.27-16.89,39.4-54.45,22.42-83.83-16.99-29.38-54.45-39.51-83.83-22.51-29.38,16.99-39.51,54.56-22.51,83.93,16.99,29.37,54.54,39.41,83.92,22.41Zm-212.59-368.07c29.38-16.99,39.51-54.56,22.51-83.93-16.99-29.37-54.56-39.4-83.93-22.42-29.27,16.89-39.4,54.45-22.42,83.83,16.99,29.38,54.46,39.41,83.83,22.52Zm0,242.27c29.38-16.99,39.51-54.56,22.51-83.93-16.99-29.37-54.56-39.4-83.93-22.42-29.27,16.89-39.4,54.45-22.42,83.83,16.99,29.39,54.46,39.51,83.83,22.52Zm-212.48,125.79c29.38-16.89,39.4-54.45,22.51-83.83-16.99-29.38-54.56-39.51-83.93-22.51-29.38,16.99-39.4,54.56-22.42,83.93,16.9,29.37,54.46,39.41,83.83,22.41Z"/></svg>