<?xml version="1.0" encoding="utf-8"?>
<!-- Generator: Adobe Illustrator 16.0.4, SVG Export Plug-In . SVG Version: 6.00 Build 0)  -->
<!DOCTYPE svg PUBLIC "-//W3C//DTD SVG 1.1//EN" "http://www.w3.org/Graphics/SVG/1.1/DTD/svg11.dtd">
<svg version="1.1" id="Layer_1" xmlns="http://www.w3.org/2000/svg" xmlns:xlink="http://www.w3.org/1999/xlink" x="0px" y="0px"
	 width="595.279px" height="841.891px" viewBox="0 0 595.279 841.891" enable-background="new 0 0 595.279 841.891"
	 xml:space="preserve">
<path fill="#E13A3E" d="M250.315,236.965h32.145L266.387,194.7L250.315,236.965z M116.972,215.535h16.072
	c32.146,0,32.146-42.265,0-42.265h-16.072V215.535z M356.869,300.66l-37.503-170.25h42.266l21.43,85.125l21.431-85.125h42.265
	l26.787,85.125l15.478-85.125h42.266l-36.908,170.25h-42.265l-26.787-95.84l-26.192,95.84H356.869z M74.706,300.66V130.41h58.934
	c74.409,0,85.125,85.125,42.265,116.675l15.478,32.146l52.979-148.82h42.265l58.933,170.25h-42.265l-10.715-26.787H239.6
	l-10.716,26.787h-69.052l-21.431-42.265h-21.43v42.265H74.706z M53.277,428.051h488.725c32.146,0,52.98-16.073,52.98-52.98V56
	c0-37.502-21.431-52.98-52.98-52.98H53.277C15.774,3.02,0.297,18.498,0.297,56v319.07C0.297,411.978,15.774,428.051,53.277,428.051z
	"/>
</svg>
